<mxfile host="app.diagrams.net" modified="2023-06-04T10:21:41.433Z" agent="Mozilla/5.0 (Windows NT 10.0; Win64; x64) AppleWebKit/537.36 (KHTML, like Gecko) Chrome/113.0.0.0 Safari/537.36" etag="K347eKHc1egedwPQpZ08" version="21.3.7" type="device">
  <diagram id="6YwQQIW8eCQRHDkm4CSs" name="Page-1">
    <mxGraphModel dx="842" dy="421" grid="1" gridSize="10" guides="1" tooltips="1" connect="1" arrows="1" fold="1" page="1" pageScale="1" pageWidth="827" pageHeight="1169" math="0" shadow="0">
      <root>
        <mxCell id="0" />
        <mxCell id="1" parent="0" />
        <mxCell id="DnkCzbvQFBXvj7n7dTfT-9" value="" style="edgeStyle=orthogonalEdgeStyle;rounded=0;orthogonalLoop=1;jettySize=auto;html=1;entryX=0.5;entryY=0;entryDx=0;entryDy=0;" parent="1" source="DnkCzbvQFBXvj7n7dTfT-1" target="aPxjT6R9IA8oW_ZFa6hz-1" edge="1">
          <mxGeometry relative="1" as="geometry">
            <mxPoint x="390" y="120" as="targetPoint" />
          </mxGeometry>
        </mxCell>
        <mxCell id="DnkCzbvQFBXvj7n7dTfT-1" value="Start" style="rounded=1;whiteSpace=wrap;html=1;" parent="1" vertex="1">
          <mxGeometry x="160" y="40" width="160" height="40" as="geometry" />
        </mxCell>
        <mxCell id="DnkCzbvQFBXvj7n7dTfT-8" value="" style="edgeStyle=orthogonalEdgeStyle;rounded=0;orthogonalLoop=1;jettySize=auto;html=1;entryX=0.5;entryY=0;entryDx=0;entryDy=0;" parent="1" target="aPxjT6R9IA8oW_ZFa6hz-4" edge="1">
          <mxGeometry relative="1" as="geometry">
            <mxPoint x="239.66" y="180" as="sourcePoint" />
            <mxPoint x="240" y="230" as="targetPoint" />
          </mxGeometry>
        </mxCell>
        <mxCell id="aPxjT6R9IA8oW_ZFa6hz-1" value="string[] array;&lt;br&gt;size = array.Length&lt;br&gt;string[] newArray&lt;br&gt;count = 0" style="rounded=0;whiteSpace=wrap;html=1;" vertex="1" parent="1">
          <mxGeometry x="160" y="120" width="160" height="80" as="geometry" />
        </mxCell>
        <mxCell id="aPxjT6R9IA8oW_ZFa6hz-13" style="edgeStyle=orthogonalEdgeStyle;rounded=0;orthogonalLoop=1;jettySize=auto;html=1;entryX=0.5;entryY=0;entryDx=0;entryDy=0;" edge="1" parent="1" source="aPxjT6R9IA8oW_ZFa6hz-2" target="aPxjT6R9IA8oW_ZFa6hz-8">
          <mxGeometry relative="1" as="geometry" />
        </mxCell>
        <mxCell id="aPxjT6R9IA8oW_ZFa6hz-21" style="edgeStyle=orthogonalEdgeStyle;rounded=0;orthogonalLoop=1;jettySize=auto;html=1;" edge="1" parent="1" source="aPxjT6R9IA8oW_ZFa6hz-2">
          <mxGeometry relative="1" as="geometry">
            <mxPoint x="240" y="520.0000000000001" as="targetPoint" />
          </mxGeometry>
        </mxCell>
        <mxCell id="aPxjT6R9IA8oW_ZFa6hz-2" value="array[i].Length &amp;lt;= 3 ?" style="rhombus;whiteSpace=wrap;html=1;" vertex="1" parent="1">
          <mxGeometry x="40" y="480" width="160" height="80" as="geometry" />
        </mxCell>
        <mxCell id="aPxjT6R9IA8oW_ZFa6hz-7" style="edgeStyle=orthogonalEdgeStyle;rounded=0;orthogonalLoop=1;jettySize=auto;html=1;" edge="1" parent="1" source="aPxjT6R9IA8oW_ZFa6hz-4">
          <mxGeometry relative="1" as="geometry">
            <mxPoint x="240" y="360" as="targetPoint" />
          </mxGeometry>
        </mxCell>
        <mxCell id="aPxjT6R9IA8oW_ZFa6hz-4" value="print array" style="rounded=1;whiteSpace=wrap;html=1;" vertex="1" parent="1">
          <mxGeometry x="160" y="240" width="160" height="80" as="geometry" />
        </mxCell>
        <mxCell id="aPxjT6R9IA8oW_ZFa6hz-17" style="edgeStyle=orthogonalEdgeStyle;rounded=0;orthogonalLoop=1;jettySize=auto;html=1;exitX=1;exitY=0.5;exitDx=0;exitDy=0;entryX=0.5;entryY=1;entryDx=0;entryDy=0;" edge="1" parent="1" source="aPxjT6R9IA8oW_ZFa6hz-8" target="aPxjT6R9IA8oW_ZFa6hz-12">
          <mxGeometry relative="1" as="geometry">
            <mxPoint x="240" y="639.6896551724137" as="targetPoint" />
          </mxGeometry>
        </mxCell>
        <mxCell id="aPxjT6R9IA8oW_ZFa6hz-8" value="newArray[count] = array[i]&lt;br&gt;count++" style="rounded=0;whiteSpace=wrap;html=1;" vertex="1" parent="1">
          <mxGeometry x="40" y="600" width="160" height="80" as="geometry" />
        </mxCell>
        <mxCell id="aPxjT6R9IA8oW_ZFa6hz-23" style="edgeStyle=orthogonalEdgeStyle;rounded=0;orthogonalLoop=1;jettySize=auto;html=1;entryX=0.5;entryY=0;entryDx=0;entryDy=0;" edge="1" parent="1" source="aPxjT6R9IA8oW_ZFa6hz-9" target="aPxjT6R9IA8oW_ZFa6hz-22">
          <mxGeometry relative="1" as="geometry" />
        </mxCell>
        <mxCell id="aPxjT6R9IA8oW_ZFa6hz-9" value="print newArray" style="rounded=1;whiteSpace=wrap;html=1;" vertex="1" parent="1">
          <mxGeometry x="280" y="600" width="160" height="80" as="geometry" />
        </mxCell>
        <mxCell id="aPxjT6R9IA8oW_ZFa6hz-11" value="yes" style="text;html=1;align=center;verticalAlign=middle;resizable=0;points=[];autosize=1;strokeColor=none;fillColor=none;" vertex="1" parent="1">
          <mxGeometry x="70" y="560" width="40" height="30" as="geometry" />
        </mxCell>
        <mxCell id="aPxjT6R9IA8oW_ZFa6hz-14" style="edgeStyle=orthogonalEdgeStyle;rounded=0;orthogonalLoop=1;jettySize=auto;html=1;entryX=0.5;entryY=0;entryDx=0;entryDy=0;exitX=0;exitY=0.5;exitDx=0;exitDy=0;" edge="1" parent="1" source="aPxjT6R9IA8oW_ZFa6hz-12" target="aPxjT6R9IA8oW_ZFa6hz-2">
          <mxGeometry relative="1" as="geometry">
            <mxPoint x="120" y="400" as="targetPoint" />
          </mxGeometry>
        </mxCell>
        <mxCell id="aPxjT6R9IA8oW_ZFa6hz-18" style="edgeStyle=orthogonalEdgeStyle;rounded=0;orthogonalLoop=1;jettySize=auto;html=1;entryX=0.5;entryY=0;entryDx=0;entryDy=0;exitX=1;exitY=0.5;exitDx=0;exitDy=0;" edge="1" parent="1" source="aPxjT6R9IA8oW_ZFa6hz-12" target="aPxjT6R9IA8oW_ZFa6hz-9">
          <mxGeometry relative="1" as="geometry" />
        </mxCell>
        <mxCell id="aPxjT6R9IA8oW_ZFa6hz-12" value="index &amp;lt; size ?&amp;nbsp;" style="rhombus;whiteSpace=wrap;html=1;" vertex="1" parent="1">
          <mxGeometry x="160" y="360" width="160" height="80" as="geometry" />
        </mxCell>
        <mxCell id="aPxjT6R9IA8oW_ZFa6hz-15" value="yes" style="text;html=1;align=center;verticalAlign=middle;resizable=0;points=[];autosize=1;strokeColor=none;fillColor=none;" vertex="1" parent="1">
          <mxGeometry x="120" y="370" width="40" height="30" as="geometry" />
        </mxCell>
        <mxCell id="aPxjT6R9IA8oW_ZFa6hz-19" value="no" style="text;html=1;align=center;verticalAlign=middle;resizable=0;points=[];autosize=1;strokeColor=none;fillColor=none;" vertex="1" parent="1">
          <mxGeometry x="320" y="370" width="40" height="30" as="geometry" />
        </mxCell>
        <mxCell id="aPxjT6R9IA8oW_ZFa6hz-20" value="no" style="text;html=1;align=center;verticalAlign=middle;resizable=0;points=[];autosize=1;strokeColor=none;fillColor=none;" vertex="1" parent="1">
          <mxGeometry x="190" y="470" width="40" height="30" as="geometry" />
        </mxCell>
        <mxCell id="aPxjT6R9IA8oW_ZFa6hz-22" value="End" style="rounded=1;whiteSpace=wrap;html=1;" vertex="1" parent="1">
          <mxGeometry x="160" y="740" width="160" height="40" as="geometry" />
        </mxCell>
      </root>
    </mxGraphModel>
  </diagram>
</mxfile>
